<svg xmlns="http://www.w3.org/2000/svg" version="1.1" x="0" y="0" viewBox="0 0 376 290" enable-background="new 0 0 376 290" xml:space="preserve">
    
<style type="text/css">
<![CDATA[ 
.path, path { stroke-dasharray: 700,300; stroke-linecap: round; animation: follow 5s infinite linear; }
@keyframes follow { 0% { stroke-dashoffset: 3000; } 50% { stroke-dasharray: 900,100; } 100% { stroke-dashoffset:0; stroke-dasharray:700,300; } }
]]>
</style>
    
<path class="path" fill="none" stroke="#53C4CC" stroke-width="20" stroke-miterlimit="10" d="M361.9 198c-6.3 42.9-40.8 79-84.1 79H94c-38.4 0-70.5-32.9-78.1-71.2-5.6-27.9 3.8-65.4 35.4-85.8-1.2-16.1 3.2-33.2 13-46.7 14.6-20.2 39.3-33.5 64.6-33.5 10.8 0 21.2 2 30.6 6.3 16-19.1 38.3-29.8 63.6-29.8 27.3 0 53.7 12.5 70.8 33.4 12.2 14.9 18.4 35.8 18.5 54.5C352.8 123.5 366.7 165.2 361.9 198z"/>

</svg>